<svg xmlns="http://www.w3.org/2000/svg" id="Group_464" data-name="Group 464" viewBox="0 0 113.253 32.613">
    <defs>
        <style>
            .cls-1{fill:#a2a2a2}.cls-2{fill:none}
        </style>
    </defs>
    <path id="Path_258" d="M124.124 61a.416.416 0 0 1-.024.171l.1-.1-.076-.071z" class="cls-1" data-name="Path 258" transform="translate(-93.738 -46.076)"/>
    <path id="Path_259" d="M155.827 69.7H152.5v1c0 .44.049.685.147.783.171.2.587.2.783.2h2.275c.807 0 1.052-.171 1.125-.269a1.485 1.485 0 0 0 .245-.783.858.858 0 0 0-.171-.563 1.231 1.231 0 0 0-1.077-.368z" class="cls-2" data-name="Path 259" transform="translate(-115.189 -52.647)"/>
    <path id="Path_260" d="M407.687 50c-1.1 0-1.835.1-2.4.954a4.207 4.207 0 0 0-.489 2.52 4.4 4.4 0 0 0 .489 2.52c.563.881 1.321.954 2.4.954 1.125 0 1.81-.1 2.4-.954a4.072 4.072 0 0 0 .489-2.52 3.844 3.844 0 0 0-.489-2.52c-.587-.854-1.275-.954-2.4-.954z" class="cls-2" data-name="Path 260" transform="translate(-305.761 -37.767)"/>
    <path id="Path_261" d="M0 0v32.613h113.253V0zm30.387 14.924l-5.26-5.138a6.574 6.574 0 0 0-7-2.031l-.416.171a6.62 6.62 0 0 0 3.817 3.792h-8.537v.024a6.61 6.61 0 0 0-6.605 6.608h15.046a6.587 6.587 0 0 0-3.719 3.743l.416.171a6.576 6.576 0 0 0 6.361-1.395v.024l5.9-5.8a16.435 16.435 0 0 1-3.964 8.49c-5.431 6.263-14.19 7.536-19.573 2.863s-5.334-13.53.122-19.793C12.4.391 21.163-.881 26.546 3.768a12.407 12.407 0 0 1 3.841 11.156zm14.973 6.484a3.5 3.5 0 0 1-2.96.93h-6.924a2.331 2.331 0 0 1-1.957-.612 2.357 2.357 0 0 1-.489-1.468V11.23a2.2 2.2 0 0 1 .465-1.468 2.122 2.122 0 0 1 1.491-.662h7.194a3.761 3.761 0 0 1 2.863.881 4.083 4.083 0 0 1 .832 2.838 2.707 2.707 0 0 1-.661 2.055 1.784 1.784 0 0 1-1.321.661v.073a2.589 2.589 0 0 1 1.566.685 2.94 2.94 0 0 1 .71 2.349 3.627 3.627 0 0 1-.809 2.766zm14.655.93H50.009a2.389 2.389 0 0 1-1.444-.416 1.757 1.757 0 0 1-.587-1.3V9.1h4.282v9.126a.879.879 0 0 0 .22.636 1.106 1.106 0 0 0 .685.171h6.851zm5.48 0h-4.281V11.059H65.5zm-.586-13.114a2.314 2.314 0 0 1-3.23.465A2.337 2.337 0 0 1 61.7 6.41a2.314 2.314 0 0 1 3.23-.465 2.338 2.338 0 0 1-.021 3.279zm7.9 9.811h6.557v3.278H69.19c-.734 0-2.373.024-2.373-1.737a3.612 3.612 0 0 1 1.3-2.691l5.26-5.016c.049-.049.2-.171.2-.294 0-.1-.147-.2-.343-.2H67.4V9.1h10.255c.905 0 1.835.269 1.835 1.762a2.846 2.846 0 0 1-1.125 2.373l-5.6 5.358c-.1.1-.2.122-.2.245.001.074.026.197.246.197zm12.258 3.3h-4.28V9.1h4.282zm4.869 0l-4.012-5.113a2.755 2.755 0 0 1-.587-1.664 2.71 2.71 0 0 1 .416-1.443L89.3 9.126h5.064l-4.575 5.431a1.6 1.6 0 0 0-.391.954 1.753 1.753 0 0 0 .538 1.223l5.138 5.6zm17.762-1.2c-1.395 1.3-3.817 1.37-5.774 1.37s-4.379-.049-5.774-1.37c-1.443-1.346-1.492-3.67-1.492-5.407 0-1.786.049-4.086 1.492-5.407 1.419-1.3 3.768-1.37 5.774-1.37s4.355.049 5.774 1.37c1.443 1.321 1.492 3.621 1.492 5.407.027 1.741-.047 4.065-1.49 5.411z" class="cls-2" data-name="Path 261"/>
    <path id="Path_262" d="M152.5 52.41h3.181a1.1 1.1 0 0 0 1.028-.367 1.369 1.369 0 0 0 .122-.612.792.792 0 0 0-.22-.563 1.31 1.31 0 0 0-.954-.269h-2.447a.728.728 0 0 0-.538.147.629.629 0 0 0-.171.563z" class="cls-2" data-name="Path 262" transform="translate(-115.186 -38.22)"/>
    <path id="Rectangle_4368" d="M0 0h4.282v11.279H0z" class="cls-1" data-name="Rectangle 4368" transform="translate(61.239 11.059)"/>
    <path id="Path_263" d="M200.6 46.986a.879.879 0 0 1-.22-.636V37.2h-4.28v11.524a1.848 1.848 0 0 0 .587 1.3 2.389 2.389 0 0 0 1.444.416h10.007v-3.3h-6.85a1.092 1.092 0 0 1-.688-.154z" class="cls-1" data-name="Path 263" transform="translate(-148.122 -28.099)"/>
    <path id="Path_264" d="M145.838 43.708v-.073a1.872 1.872 0 0 0 1.321-.661 2.707 2.707 0 0 0 .661-2.055 4.083 4.083 0 0 0-.832-2.838 3.892 3.892 0 0 0-2.863-.881h-7.169a2.122 2.122 0 0 0-1.492.661 2.2 2.2 0 0 0-.464 1.468v9a2.357 2.357 0 0 0 .489 1.468 2.331 2.331 0 0 0 1.957.612h6.924a3.475 3.475 0 0 0 2.96-.93 3.761 3.761 0 0 0 .783-2.789 3.031 3.031 0 0 0-.71-2.349 2.813 2.813 0 0 0-1.565-.633zm-6.386-3.058a.728.728 0 0 1 .538-.147h2.447a1.254 1.254 0 0 1 .954.269.792.792 0 0 1 .22.563 1.815 1.815 0 0 1-.122.612c-.22.367-.661.367-1.028.367h-3.181v-1.077c.002-.245-.023-.416.173-.587zm4.159 6.239c-.073.1-.318.269-1.125.269h-2.275c-.22 0-.612 0-.783-.2a1.3 1.3 0 0 1-.147-.783v-1h3.327a1.278 1.278 0 0 1 1.1.367.9.9 0 0 1 .171.563 1.492 1.492 0 0 1-.267.784z" class="cls-1" data-name="Path 264" transform="translate(-101.971 -28.099)"/>
    <path id="Path_265" d="M279.045 46.693l5.6-5.358a2.882 2.882 0 0 0 1.125-2.373c0-1.492-.93-1.762-1.835-1.762h-10.248v3.278h5.823c.2 0 .343.122.343.2 0 .122-.147.22-.2.294l-5.26 5.016a3.747 3.747 0 0 0-1.3 2.691c0 1.762 1.639 1.737 2.373 1.737h10.178v-3.283h-6.557c-.22 0-.22-.122-.22-.2-.017-.118.08-.142.178-.24z" class="cls-1" data-name="Path 265" transform="translate(-206.283 -28.099)"/>
    <path id="Path_266" d="M394.166 36.6c-2.006 0-4.355.049-5.774 1.37-1.444 1.321-1.492 3.621-1.492 5.407 0 1.737.049 4.061 1.492 5.407 1.395 1.3 3.817 1.37 5.774 1.37s4.379-.049 5.774-1.37c1.443-1.346 1.492-3.67 1.492-5.407 0-1.786-.049-4.086-1.492-5.407-1.394-1.321-3.767-1.37-5.774-1.37zm2.4 9.273c-.587.881-1.3.954-2.4.954-1.077 0-1.835-.1-2.4-.954a4.4 4.4 0 0 1-.489-2.52 4.207 4.207 0 0 1 .489-2.52c.563-.881 1.3-.954 2.4-.954 1.125 0 1.81.1 2.4.954a3.844 3.844 0 0 1 .489 2.52 4.072 4.072 0 0 1-.491 2.52z" class="cls-1" data-name="Path 266" transform="translate(-292.241 -27.645)"/>
    <path id="Path_267" d="M352.937 43.61a1.849 1.849 0 0 1 .391-.954l4.6-5.456h-5.065l-3.548 4.991a2.776 2.776 0 0 0-.416 1.444 2.608 2.608 0 0 0 .587 1.664l4.012 5.113h5.138l-5.138-5.6a1.622 1.622 0 0 1-.561-1.202z" class="cls-1" data-name="Path 267" transform="translate(-263.538 -28.099)"/>
    <path id="Rectangle_4369" d="M0 0h4.282v13.236H0z" class="cls-1" data-name="Rectangle 4369" transform="translate(80.811 9.101)"/>
    <path id="Path_268" d="M35.311 6.83c-5.358-4.673-14.117-3.377-19.549 2.862-5.456 6.263-5.5 15.12-.122 19.793 5.36 4.673 14.141 3.376 19.573-2.862a16.435 16.435 0 0 0 3.964-8.49l-5.9 5.8v-.024a6.7 6.7 0 0 1-6.358 1.391l-.419-.17a6.587 6.587 0 0 1 3.719-3.743H15.175a6.61 6.61 0 0 1 6.606-6.606v-.024h8.539a6.551 6.551 0 0 1-3.82-3.793l.416-.171a6.644 6.644 0 0 1 7 2.031l5.26 5.138A12.292 12.292 0 0 0 35.311 6.83z" class="cls-1" data-name="Path 268" transform="translate(-8.789 -3.037)"/>
    <path id="Path_269" d="M250.094 23.389a2.338 2.338 0 0 0-.024 3.278 2.314 2.314 0 0 0 3.23-.465 2.338 2.338 0 0 0 .024-3.278 2.287 2.287 0 0 0-3.23.465z" class="cls-1" data-name="Path 269" transform="translate(-188.391 -16.955)"/>
    <path id="Path_270" d="M124.124 61a.416.416 0 0 1-.024.171l.1-.1-.076-.071z" class="cls-1" data-name="Path 270" transform="translate(-93.738 -46.076)"/>
    <path id="Path_271" d="M155.827 69.7H152.5v1c0 .44.049.685.147.783.171.2.587.2.783.2h2.275c.807 0 1.052-.171 1.125-.269a1.485 1.485 0 0 0 .245-.783.858.858 0 0 0-.171-.563 1.231 1.231 0 0 0-1.077-.368z" class="cls-2" data-name="Path 271" transform="translate(-115.189 -52.647)"/>
    <path id="Path_272" d="M407.687 50c-1.1 0-1.835.1-2.4.954a4.207 4.207 0 0 0-.489 2.52 4.4 4.4 0 0 0 .489 2.52c.563.881 1.321.954 2.4.954 1.125 0 1.81-.1 2.4-.954a4.072 4.072 0 0 0 .489-2.52 3.844 3.844 0 0 0-.489-2.52c-.587-.854-1.275-.954-2.4-.954z" class="cls-2" data-name="Path 272" transform="translate(-305.761 -37.767)"/>
    <path id="Path_273" d="M0 0v32.613h113.253V0zm30.387 14.924l-5.26-5.138a6.574 6.574 0 0 0-7-2.031l-.416.171a6.62 6.62 0 0 0 3.817 3.792h-8.537v.024a6.61 6.61 0 0 0-6.605 6.608h15.046a6.587 6.587 0 0 0-3.719 3.743l.416.171a6.576 6.576 0 0 0 6.361-1.395v.024l5.9-5.8a16.435 16.435 0 0 1-3.964 8.49c-5.431 6.263-14.19 7.536-19.573 2.863s-5.334-13.53.122-19.793C12.4.391 21.163-.881 26.546 3.768a12.407 12.407 0 0 1 3.841 11.156zm14.973 6.484a3.5 3.5 0 0 1-2.96.93h-6.924a2.331 2.331 0 0 1-1.957-.612 2.357 2.357 0 0 1-.489-1.468V11.23a2.2 2.2 0 0 1 .465-1.468 2.122 2.122 0 0 1 1.491-.662h7.194a3.761 3.761 0 0 1 2.863.881 4.083 4.083 0 0 1 .832 2.838 2.707 2.707 0 0 1-.661 2.055 1.784 1.784 0 0 1-1.321.661v.073a2.589 2.589 0 0 1 1.566.685 2.94 2.94 0 0 1 .71 2.349 3.627 3.627 0 0 1-.809 2.766zm14.655.93H50.009a2.389 2.389 0 0 1-1.444-.416 1.757 1.757 0 0 1-.587-1.3V9.1h4.282v9.126a.879.879 0 0 0 .22.636 1.106 1.106 0 0 0 .685.171h6.851zm5.48 0h-4.281V11.059H65.5zm-.586-13.114a2.314 2.314 0 0 1-3.23.465A2.337 2.337 0 0 1 61.7 6.41a2.314 2.314 0 0 1 3.23-.465 2.338 2.338 0 0 1-.021 3.279zm7.9 9.811h6.557v3.278H69.19c-.734 0-2.373.024-2.373-1.737a3.612 3.612 0 0 1 1.3-2.691l5.26-5.016c.049-.049.2-.171.2-.294 0-.1-.147-.2-.343-.2H67.4V9.1h10.255c.905 0 1.835.269 1.835 1.762a2.846 2.846 0 0 1-1.125 2.373l-5.6 5.358c-.1.1-.2.122-.2.245.001.074.026.197.246.197zm12.258 3.3h-4.28V9.1h4.282zm4.869 0l-4.012-5.113a2.755 2.755 0 0 1-.587-1.664 2.71 2.71 0 0 1 .416-1.443L89.3 9.126h5.064l-4.575 5.431a1.6 1.6 0 0 0-.391.954 1.753 1.753 0 0 0 .538 1.223l5.138 5.6zm17.762-1.2c-1.395 1.3-3.817 1.37-5.774 1.37s-4.379-.049-5.774-1.37c-1.443-1.346-1.492-3.67-1.492-5.407 0-1.786.049-4.086 1.492-5.407 1.419-1.3 3.768-1.37 5.774-1.37s4.355.049 5.774 1.37c1.443 1.321 1.492 3.621 1.492 5.407.027 1.741-.047 4.065-1.49 5.411z" class="cls-2" data-name="Path 273"/>
    <path id="Path_274" d="M152.5 52.41h3.181a1.1 1.1 0 0 0 1.028-.367 1.369 1.369 0 0 0 .122-.612.792.792 0 0 0-.22-.563 1.31 1.31 0 0 0-.954-.269h-2.447a.728.728 0 0 0-.538.147.629.629 0 0 0-.171.563z" class="cls-2" data-name="Path 274" transform="translate(-115.186 -38.22)"/>
</svg>
