<svg xmlns="http://www.w3.org/2000/svg" viewBox="0 0 30.213 37.406">
    <defs>
        <style>
            .cls-1{fill:#c6c6c6}
        </style>
    </defs>
    <g id="_02" data-name="2" transform="translate(-11 -6)">
        <path id="Path_462" d="M39.774 8.877h-1.439v-.719A2.161 2.161 0 0 0 36.177 6H13.158A2.161 2.161 0 0 0 11 8.158v30.213a2.161 2.161 0 0 0 2.158 2.158h2.158v.719a2.161 2.161 0 0 0 2.158 2.158h14.387a2.161 2.161 0 0 0 2.158-2.158v-.719h2.158a2.161 2.161 0 0 0 2.158-2.158v-.719h1.439a1.44 1.44 0 0 0 1.439-1.439v-25.9a1.44 1.44 0 0 0-1.439-1.436zm-27.335-.719a.72.72 0 0 1 .719-.719h23.019a.72.72 0 0 1 .719.719v27.336a.72.72 0 0 1-.719.719h-2.158V31.9h-18.7v4.316h-2.161a.72.72 0 0 1-.719-.719V8.158zm.719 30.932a.72.72 0 0 1-.719-.719v-.852a2.134 2.134 0 0 0 .719.132h2.158v1.439zm4.316 2.877a.72.72 0 0 1-.719-.719v-7.913h4.316v3.6h1.439v-3.6h1.439v5.035h1.439v-5.035h1.439v8.632zm10.79 0v-8.632H29.7v8.632zm4.316-.719a.72.72 0 0 1-.719.719h-.719v-8.632h1.439zm3.6-2.158h-2.161v-1.438h2.158a2.134 2.134 0 0 0 .719-.132v.852a.72.72 0 0 1-.719.718zm3.6-2.877h-1.445v-25.9h1.439z" class="cls-1" data-name="Path 462"/>
        <path id="Path_463" d="M18.439 17.755h15.826a1.44 1.44 0 0 0 1.435-1.439v-2.877A1.44 1.44 0 0 0 34.265 12H18.439A1.44 1.44 0 0 0 17 13.439v2.877a1.44 1.44 0 0 0 1.439 1.439zm0-4.316h15.826v2.877H18.439z" class="cls-1" data-name="Path 463" transform="translate(-1.684 -1.684)"/>
        <path id="Path_464" d="M18.439 26.316h1.439a1.44 1.44 0 0 0 1.439-1.439v-1.438A1.44 1.44 0 0 0 19.877 22h-1.438A1.44 1.44 0 0 0 17 23.439v1.439a1.44 1.44 0 0 0 1.439 1.438zm0-2.877h1.439v1.439h-1.439z" class="cls-1" data-name="Path 464" transform="translate(-1.684 -4.49)"/>
        <path id="Path_465" d="M39.877 22h-1.438A1.44 1.44 0 0 0 37 23.439v1.439a1.44 1.44 0 0 0 1.439 1.439h1.439a1.44 1.44 0 0 0 1.439-1.439v-1.439A1.44 1.44 0 0 0 39.877 22zm0 2.877h-1.438v-1.438h1.439z" class="cls-1" data-name="Path 465" transform="translate(-7.297 -4.49)"/>
        <path id="Path_466" d="M18.439 34.316h1.439a1.44 1.44 0 0 0 1.439-1.439v-1.438A1.44 1.44 0 0 0 19.877 30h-1.438A1.44 1.44 0 0 0 17 31.439v1.439a1.44 1.44 0 0 0 1.439 1.438zm0-2.877h1.439v1.439h-1.439z" class="cls-1" data-name="Path 466" transform="translate(-1.684 -6.735)"/>
        <path id="Path_467" d="M26.439 26.316h4.316a1.44 1.44 0 0 0 1.439-1.439v-1.438A1.44 1.44 0 0 0 30.755 22h-4.316A1.44 1.44 0 0 0 25 23.439v1.439a1.44 1.44 0 0 0 1.439 1.438zm0-2.877h4.316v1.439h-4.316z" class="cls-1" data-name="Path 467" transform="translate(-3.929 -4.49)"/>
        <path id="Path_468" d="M25 32.877a1.44 1.44 0 0 0 1.439 1.439h4.316a1.44 1.44 0 0 0 1.439-1.439v-1.438A1.44 1.44 0 0 0 30.755 30h-4.316A1.44 1.44 0 0 0 25 31.439zm1.439-1.439h4.316v1.439h-4.316z" class="cls-1" data-name="Path 468" transform="translate(-3.929 -6.735)"/>
        <path id="Path_469" d="M39.877 30h-1.438A1.44 1.44 0 0 0 37 31.439v1.439a1.44 1.44 0 0 0 1.439 1.439h1.439a1.44 1.44 0 0 0 1.439-1.439v-1.439A1.44 1.44 0 0 0 39.877 30zm0 2.877h-1.438v-1.438h1.439z" class="cls-1" data-name="Path 469" transform="translate(-7.297 -6.735)"/>
        <path id="Rectangle_4513" d="M0 0h15.826v1.439H0z" class="cls-1" data-name="Rectangle 4513" transform="translate(16.755 29.019)"/>
    </g>
</svg>
