<svg xmlns="http://www.w3.org/2000/svg" viewBox="0 0 50.536 34.743">
    <defs>
        <style>
            .cls-1{fill:#c6c6c6}
        </style>
    </defs>
    <path id="Path_292" d="M2.369 10A2.327 2.327 0 0 0 0 12.369v25.267a2.327 2.327 0 0 0 2.369 2.369h2.369v2.369a2.327 2.327 0 0 0 2.369 2.369h41.06a2.327 2.327 0 0 0 2.369-2.369V17.106a2.327 2.327 0 0 0-2.369-2.369H45.8v-2.368A2.327 2.327 0 0 0 43.429 10zm0 1.579h41.06a.745.745 0 0 1 .79.79v10.265H1.579v-6.317h33.954a.79.79 0 1 0 0-1.579H1.579v-2.369a.745.745 0 0 1 .79-.79zm36.322 3.158a.79.79 0 1 0 0 1.579h3.159a.79.79 0 1 0 0-1.579zm7.109 1.58h2.369a.745.745 0 0 1 .79.79v25.267a.745.745 0 0 1-.79.79H7.107a.745.745 0 0 1-.79-.79v-2.369h37.112a2.327 2.327 0 0 0 2.371-2.369zm-44.219 7.9h42.638v13.419a.745.745 0 0 1-.79.79H2.369a.745.745 0 0 1-.79-.79zm31.585 3.158a3.158 3.158 0 1 0 0 6.317 3.029 3.029 0 0 0 1.974-.713 3.029 3.029 0 0 0 1.974.713 3.158 3.158 0 1 0 0-6.317 3.029 3.029 0 0 0-1.974.712 3.029 3.029 0 0 0-1.976-.716zm-27.637.79a.79.79 0 1 0 0 1.579h11.053a.79.79 0 1 0 0-1.579zm15.792 0a.79.79 0 1 0 0 1.579h3.158a.79.79 0 1 0 0-1.579zm11.687.712a1.756 1.756 0 0 1 1.419.79.894.894 0 0 0 1.425 0 1.756 1.756 0 0 1 1.419-.79 1.656 1.656 0 1 1 0 3.313 1.756 1.756 0 0 1-1.419-.79.84.84 0 0 0-1.425 0 1.756 1.756 0 0 1-1.419.79 1.667 1.667 0 0 1-1.659-1.656 1.72 1.72 0 0 1 1.658-1.66zM5.527 31.319a.79.79 0 1 0 0 1.579h8.686a.79.79 0 1 0 0-1.579z" class="cls-1" data-name="Path 292" transform="translate(0 -10)"/>
</svg>
