<svg xmlns="http://www.w3.org/2000/svg" viewBox="0 0 41 28.276">
    <defs>
        <style>
            .cls-1{fill:#c6c6c6}
        </style>
    </defs>
    <g id="Group_581" data-name="Group 581" transform="translate(-90 -642.725)">
        <path id="Path_483" d="M41.879 12H12.19a2.123 2.123 0 0 0-2.121 2.121v1.414H8.655a2.123 2.123 0 0 0-2.121 2.121v1.414H5.121A2.123 2.123 0 0 0 3 21.19v16.965a2.123 2.123 0 0 0 2.121 2.121H34.81a2.123 2.123 0 0 0 2.121-2.121v-1.414h1.414a2.123 2.123 0 0 0 2.121-2.121v-1.413h1.414A2.123 2.123 0 0 0 44 31.086V14.121A2.123 2.123 0 0 0 41.879 12zm-6.362 26.155a.708.708 0 0 1-.707.707H5.121a.708.708 0 0 1-.707-.707V21.19a.708.708 0 0 1 .707-.707H34.81a.708.708 0 0 1 .707.707zm3.534-3.534a.708.708 0 0 1-.707.707h-1.413V21.19a2.123 2.123 0 0 0-2.121-2.121H7.948v-1.414a.708.708 0 0 1 .707-.707h29.69a.708.708 0 0 1 .707.707zm3.534-3.534a.708.708 0 0 1-.707.707h-1.412V17.655a2.123 2.123 0 0 0-2.121-2.121H11.483v-1.413a.708.708 0 0 1 .707-.707h29.69a.708.708 0 0 1 .707.707z" class="cls-1" data-name="Path 483" transform="translate(87 630.725)"/>
        <path id="Path_484" d="M24.948 30a4.948 4.948 0 1 0 4.952 4.948A4.954 4.954 0 0 0 24.948 30zm0 8.483a3.534 3.534 0 1 1 3.534-3.534 3.538 3.538 0 0 1-3.534 3.534z" class="cls-1" data-name="Path 484" transform="translate(82.018 625.449)"/>
        <path id="Path_485" d="M32.448 26.707V26H9.828v.707a2.236 2.236 0 0 1-2.121 2.121H7v9.9h.707a2.236 2.236 0 0 1 2.121 2.121v.707h22.62v-.707a2.236 2.236 0 0 1 2.121-2.121h.707v-9.9h-.707a2.236 2.236 0 0 1-2.121-2.121zm1.414 10.681a3.692 3.692 0 0 0-2.75 2.75H11.164a3.691 3.691 0 0 0-2.75-2.75v-7.224a3.692 3.692 0 0 0 2.75-2.75h19.948a3.691 3.691 0 0 0 2.75 2.75z" class="cls-1" data-name="Path 485" transform="translate(85.827 626.621)"/>
        <circle id="Ellipse_266" cx="2.121" cy="2.121" r="2.121" class="cls-1" data-name="Ellipse 266" transform="translate(104.845 658.275)"/>
    </g>
</svg>
