<svg xmlns="http://www.w3.org/2000/svg" viewBox="0 0 36 34.616">
    <defs>
        <style>
            .cls-1{fill:#c6c6c6}
        </style>
    </defs>
    <g id="Group_583" data-name="Group 583" transform="translate(-816 -636)">
        <circle id="Ellipse_264" cx="1.038" cy="1.038" r="1.038" class="cls-1" data-name="Ellipse 264" transform="translate(828.115 642.576)"/>
        <circle id="Ellipse_265" cx="1.038" cy="1.038" r="1.038" class="cls-1" data-name="Ellipse 265" transform="translate(847.5 638.424)"/>
        <path id="Path_474" d="M11.538 43H7.385A1.386 1.386 0 0 0 6 44.385v8.308h6.923v-8.308A1.386 1.386 0 0 0 11.538 43zm0 1.385v1.385H7.385v-1.385zm-4.153 6.923v-4.154h4.154v4.154z" class="cls-1" data-name="Path 474" transform="translate(810 617.924)"/>
        <path id="Path_475" d="M25.538 33h-4.153A1.386 1.386 0 0 0 20 34.385v15.23h6.923v-15.23A1.386 1.386 0 0 0 25.538 33zm0 1.385v1.385h-4.153v-1.385zm-4.153 13.846V37.154h4.154v11.077z" class="cls-1" data-name="Path 475" transform="translate(805.692 621)"/>
        <path id="Path_476" d="M39.538 41h-4.153A1.386 1.386 0 0 0 34 42.385v9.692h6.923v-9.692A1.386 1.386 0 0 0 39.538 41zm0 1.385v1.385h-4.153v-1.385zm-4.154 8.308v-5.539h4.154v5.538z" class="cls-1" data-name="Path 476" transform="translate(801.385 618.539)"/>
        <path id="Path_477" d="M53.538 25h-4.153A1.386 1.386 0 0 0 48 26.385v20.769h6.923V26.385A1.386 1.386 0 0 0 53.538 25zm0 1.385v1.385h-4.153v-1.385zm-4.153 19.384V29.154h4.154v16.615z" class="cls-1" data-name="Path 477" transform="translate(797.077 623.461)"/>
        <path id="Path_478" d="M37.187 13.648a3.5 3.5 0 1 0-1.137-.791L30.689 20a3.393 3.393 0 0 0-4.016.246l-4.611-3.772a3.468 3.468 0 1 0-5.948-.244l-4.555 3.953a3.427 3.427 0 0 0-2.1-.726 3.462 3.462 0 1 0 3.462 3.462 3.418 3.418 0 0 0-.459-1.689L17 17.3a3.414 3.414 0 0 0 4.1.177l4.7 3.844a3.413 3.413 0 0 0-.411 1.6 3.462 3.462 0 1 0 6.311-1.954zm1.351-5.263a2.077 2.077 0 1 1-2.077 2.077 2.079 2.079 0 0 1 2.077-2.077zM9.462 25a2.077 2.077 0 1 1 2.077-2.077A2.079 2.079 0 0 1 9.462 25zm9.692-8.308a2.077 2.077 0 1 1 2.077-2.077 2.079 2.079 0 0 1-2.077 2.077zM28.846 25a2.077 2.077 0 1 1 2.077-2.077A2.079 2.079 0 0 1 28.846 25z" class="cls-1" data-name="Path 478" transform="translate(810 629)"/>
    </g>
</svg>
