<svg xmlns="http://www.w3.org/2000/svg" viewBox="0 0 43.593 39.456">
    <defs>
        <style>
            .cls-1{fill:#c6c6c6}
        </style>
    </defs>
    <g id="Group_582" data-name="Group 582" transform="translate(-331.408 -636.99)">
        <circle id="Ellipse_262" cx="1.548" cy="1.548" r="1.548" class="cls-1" data-name="Ellipse 262" transform="translate(334.42 651.502)"/>
        <circle id="Ellipse_263" cx="1.548" cy="1.548" r="1.548" class="cls-1" data-name="Ellipse 263" transform="translate(368.881 649.859)"/>
        <path id="Path_473" d="M48.9 21.2L36.863 9.164a2.388 2.388 0 0 0-3.374 0L31.3 11.352a2.387 2.387 0 0 0-.479 2.668l-1.662 1.662-.5-.5a3.836 3.836 0 0 0-3.741-1.02 2.364 2.364 0 0 0-.635-1.168L22.094 10.8a2.391 2.391 0 0 0-3.374 0L6.684 22.839a2.391 2.391 0 0 0 .029 3.374L8.929 28.4a2.242 2.242 0 0 0 1.659.7 2.271 2.271 0 0 0 .445-.044 3.9 3.9 0 0 0 1.128 2.629l.5.5-.5.5a3.163 3.163 0 0 0 0 4.467 3.127 3.127 0 0 0 1.9.892 3.127 3.127 0 0 0 3.773 3.774 3.125 3.125 0 0 0 3.126 2.822 3.167 3.167 0 0 0 .7-.087 3.142 3.142 0 0 0 5.309 1.94l.506.506a3.134 3.134 0 0 0 5.256-1.369 3.134 3.134 0 0 0 4.969-1.825 3.145 3.145 0 0 0 4.172-4.169 3.131 3.131 0 0 0 1.55-.843 3.164 3.164 0 0 0 0-4.467l-2.143-2.143 2.143-2.143a3.907 3.907 0 0 0 1.135-2.628 2.417 2.417 0 0 0 .459.044 2.375 2.375 0 0 0 1.687-.7l2.197-2.185a2.385 2.385 0 0 0 0-3.371zm-38.841 6.015l-2.187-2.187a.71.71 0 0 1 0-1l12.034-12.036a.711.711 0 0 1 1 0l2.194 2.187a.71.71 0 0 1 0 1l-2.735 2.735-6.018 6.017-2.188 2.188-1.093 1.093a.709.709 0 0 1-1.007.003zm3.282 6.656a1.482 1.482 0 1 1 0 2.095 1.476 1.476 0 0 1 0-2.094zm2.735 5.929a1.484 1.484 0 0 1 0-2.1l.547-.547.547-.547a1.521 1.521 0 0 1 2.1 0 1.484 1.484 0 0 1 0 2.1l-.547.547-.547.547a1.484 1.484 0 0 1-2.1 0zm3.829 2.735a1.482 1.482 0 1 1 2.1 0 1.484 1.484 0 0 1-2.099-.003zm5.925 2.735a1.482 1.482 0 1 1 0-2.1 1.483 1.483 0 0 1 .001 2.097zm16.41-7.658a1.484 1.484 0 0 1-2.1 0l-2.73-2.739-3.829-3.83-1.187 1.187 7.658 7.658a1.482 1.482 0 1 1-2.1 2.095l-1.089-1.093-1.641-1.641-4.922-4.923-1.186 1.186 4.923 4.923 1.641 1.641a1.482 1.482 0 0 1-2.1 2.1l-1.641-1.641-4.923-4.923-1.186 1.186 4.923 4.923a1.482 1.482 0 0 1-2.1 2.1l-.825-.825a3.136 3.136 0 0 0-3.753-3.842 3.091 3.091 0 0 0-2.791-2.79 3.14 3.14 0 0 0-3.772-3.774 3.105 3.105 0 0 0-2.989-2.808l-.137-.137.046-.046-1.09-1.099a2.257 2.257 0 0 1 0-3.185l10.942-10.948a2.311 2.311 0 0 1 3.187 0l.5.5-3.234 3.233-1.641 1.641a3.933 3.933 0 1 0 5.561 5.562l2.689-2.689 10.9 10.895a1.484 1.484 0 0 1-.003 2.1zm0-8.753L40.1 31l-8.752-8.752-3.875 3.876a2.256 2.256 0 0 1-3.19-3.19l3.282-3.282 4.33-4.33 10.35 10.35a2.257 2.257 0 0 1-.004 3.184zm5.47-5.469l-2.188 2.188a.709.709 0 0 1-1 0l-1.09-1.09-1.641-1.641-6.017-6.018-.8-.8-2.486-2.489a.71.71 0 0 1 0-1l2.188-2.187a.71.71 0 0 1 1 0l12.036 12.032a.711.711 0 0 1-.001 1.002z" class="cls-1" data-name="Path 473" transform="translate(325.406 628.523)"/>
    </g>
</svg>
