<svg xmlns="http://www.w3.org/2000/svg" id="insurance" viewBox="0 0 34.712 40.657">
    <defs>
        <style>
            .cls-1{fill:#c6c6c6}
        </style>
    </defs>
    <path id="Path_291" d="M23.586 1.555A2.025 2.025 0 0 0 22.323 2l-1.51 1.21a19.524 19.524 0 0 1-9.613 4.1l-3.22.431a2.028 2.028 0 0 0-1.747 2.12l.658 11.2a20.892 20.892 0 0 0 7.974 15.222l6.645 5.2a3.364 3.364 0 0 0 4.149 0l6.648-5.2a20.892 20.892 0 0 0 7.974-15.222l.658-11.2a2.031 2.031 0 0 0-1.749-2.123l-3.217-.431a19.524 19.524 0 0 1-9.613-4.1L24.848 2a2.035 2.035 0 0 0-1.262-.445zm0 1.352a.673.673 0 0 1 .421.147l1.507 1.208a20.872 20.872 0 0 0 10.279 4.391l3.217.431a.672.672 0 0 1 .581.705L38.939 21a19.55 19.55 0 0 1-7.461 14.238l-6.648 5.2a2.011 2.011 0 0 1-2.489 0l-6.648-5.2A19.555 19.555 0 0 1 8.232 21L7.577 9.789a.674.674 0 0 1 .581-.705l3.217-.431a20.843 20.843 0 0 0 10.277-4.391l1.513-1.208a.663.663 0 0 1 .421-.147zm0 2.494a1.357 1.357 0 0 0-.829.284l-.971.758a19.5 19.5 0 0 1-10.223 4.033l-.776.071a1.342 1.342 0 0 0-1.223 1.415l.531 9.637A15.523 15.523 0 0 0 15.8 32.783l6.509 5.275a2.027 2.027 0 0 0 2.547 0l6.509-5.275A15.527 15.527 0 0 0 37.076 21.6l.531-9.637a1.338 1.338 0 0 0-1.223-1.415l-.776-.074A19.481 19.481 0 0 1 25.385 6.44l-.971-.755a1.351 1.351 0 0 0-.828-.285zm0 1.347l.971.758a20.859 20.859 0 0 0 10.931 4.312l.776.068-.531 9.639a14.136 14.136 0 0 1-1.723 6.017 5.845 5.845 0 0 0-.944 1.5 14.139 14.139 0 0 1-2.544 2.689l-6.511 5.28a.68.68 0 0 1-.847 0l-6.511-5.28a14.237 14.237 0 0 1-2.553-2.687 5.767 5.767 0 0 0-.942-1.5 14.136 14.136 0 0 1-1.723-6.017l-.531-9.639.776-.068a20.859 20.859 0 0 0 10.935-4.314zm0 2.8a1.325 1.325 0 0 0-.771.242L21.081 11a19.384 19.384 0 0 1-5.764 2.76.675.675 0 0 0 .189 1.323.658.658 0 0 0 .187-.029 20.78 20.78 0 0 0 6.159-2.954l1.734-1.21 1.728 1.21a20.9 20.9 0 0 0 2.439 1.471.674.674 0 0 0 .618-1.2A19.349 19.349 0 0 1 26.087 11l-1.731-1.21a1.356 1.356 0 0 0-.77-.243zm6.824 3.791a.675.675 0 0 0-.192 1.308c.4.145.805.276 1.213.395a.674.674 0 1 0 .376-1.294c-.379-.11-.758-.234-1.131-.368a.717.717 0 0 0-.266-.042z" class="cls-1" data-name="Path 291" transform="translate(-6.229 -1.555)"/>
</svg>
