<svg xmlns="http://www.w3.org/2000/svg" viewBox="0 0 39 36">
    <defs>
        <style>
            .cls-1{fill:#c6c6c6}
        </style>
    </defs>
    <g id="_01_2_" data-name="01 (2)" transform="translate(-6 -8)">
        <path id="Path_470" d="M30 24a6 6 0 1 0 6 6 6.007 6.007 0 0 0-6-6zm4.432 5.25h-1.538a2.994 2.994 0 0 0-2.144-2.143v-1.539a4.506 4.506 0 0 1 3.682 3.682zM30 31.5a1.5 1.5 0 1 1 1.5-1.5 1.5 1.5 0 0 1-1.5 1.5zm-.75-5.932v1.539a2.994 2.994 0 0 0-2.143 2.143h-1.539a4.506 4.506 0 0 1 3.682-3.682zm-3.682 5.182h1.539a2.994 2.994 0 0 0 2.143 2.144v1.539a4.506 4.506 0 0 1-3.682-3.683zm5.182 3.682v-1.538a2.994 2.994 0 0 0 2.144-2.144h1.539a4.506 4.506 0 0 1-3.683 3.682z" class="cls-1" data-name="Path 470" transform="translate(-4.5 -4)"/>
        <path id="Path_471" d="M41.25 11h-5.536l-.877-1.755A2.241 2.241 0 0 0 32.822 8H18.179a2.242 2.242 0 0 0-2.015 1.245L15.286 11H9.75A3.754 3.754 0 0 0 6 14.75v22.5A3.754 3.754 0 0 0 9.75 41h.75v.75A2.253 2.253 0 0 0 12.75 44h6A2.253 2.253 0 0 0 21 41.75V41h9v.75A2.253 2.253 0 0 0 32.25 44h6a2.253 2.253 0 0 0 2.25-2.25V41h.75A3.754 3.754 0 0 0 45 37.25v-22.5A3.754 3.754 0 0 0 41.25 11zM17.506 9.916a.748.748 0 0 1 .673-.416h14.642a.747.747 0 0 1 .673.416L34.036 11H16.964zM19.5 41.75a.75.75 0 0 1-.75.75h-6a.75.75 0 0 1-.75-.75V41h7.5zm19.5 0a.75.75 0 0 1-.75.75h-6a.75.75 0 0 1-.75-.75V41H39zm4.5-4.5a2.253 2.253 0 0 1-2.25 2.25H9.75a2.253 2.253 0 0 1-2.25-2.25v-22.5a2.253 2.253 0 0 1 2.25-2.25h31.5a2.253 2.253 0 0 1 2.25 2.25z" class="cls-1" data-name="Path 471"/>
        <path id="Path_472" d="M41.5 16h-30a1.5 1.5 0 0 0-1.5 1.5v21a1.5 1.5 0 0 0 1.5 1.5h30a1.5 1.5 0 0 0 1.5-1.5v-21a1.5 1.5 0 0 0-1.5-1.5zm-30 22.5v-21h30v21z" class="cls-1" data-name="Path 472" transform="translate(-1 -2)"/>
        <path id="Rectangle_4516" d="M0 0h1.5v9H0z" class="cls-1" data-name="Rectangle 4516" transform="translate(37.5 21.5)"/>
        <path id="Rectangle_4517" d="M0 0h1.5v9H0z" class="cls-1" data-name="Rectangle 4517" transform="translate(12 21.5)"/>
    </g>
</svg>
