<svg xmlns="http://www.w3.org/2000/svg" viewBox="0 0 19.103 15.71">
    <defs>
        <style>
            .cls-1{fill:#a2a2a2;fill-rule:evenodd}
        </style>
    </defs>
    <path id="Path_459" d="M1182.276-295.821l.041.68-.69-.083a11.244 11.244 0 0 1-6.569-3.217l-.911-.9-.234.666a3.988 3.988 0 0 0 .855 4.1c.552.582.428.666-.524.319a1.636 1.636 0 0 0-.649-.152 4.982 4.982 0 0 0 .5 1.858 4.45 4.45 0 0 0 1.89 1.775l.677.319-.8.014c-.772 0-.8.014-.717.305a4.166 4.166 0 0 0 2.582 2.274l.855.291-.745.444a7.793 7.793 0 0 1-3.7 1.026 4.106 4.106 0 0 0-1.132.111 10.515 10.515 0 0 0 2.664 1.22 11.709 11.709 0 0 0 9.054-1.026 12.085 12.085 0 0 0 4.6-5.381 14.263 14.263 0 0 0 .937-4.16c0-.638.042-.721.816-1.484a9.285 9.285 0 0 0 .966-1.068c.138-.264.123-.264-.58-.028-1.173.416-1.339.361-.759-.263a4.03 4.03 0 0 0 .939-1.484c0-.042-.207.028-.443.153a7.681 7.681 0 0 1-1.214.471l-.746.236-.676-.458a5.661 5.661 0 0 0-1.173-.61 4.738 4.738 0 0 0-2.415.055 3.97 3.97 0 0 0-2.699 3.997z" class="cls-1" data-name="Path 459" transform="translate(-1173 300)"/>
</svg>
