<svg xmlns="http://www.w3.org/2000/svg" viewBox="0 0 21.048 11.73">
    <defs>
        <style>
            .cls-1{fill:#a2a2a2;fill-rule:evenodd}
        </style>
    </defs>
    <path id="Path_460" d="M1233.556-286.319a1.082 1.082 0 0 0 .575-.245.882.882 0 0 0 .172-.54s-.023-1.648.759-1.892 1.763 1.594 2.816 2.3a2.029 2.029 0 0 0 1.4.416l2.811-.038s1.47-.089.774-1.218a9.258 9.258 0 0 0-2.089-2.362c-1.764-1.6-1.526-1.34.6-4.1 1.293-1.683 1.809-2.711 1.648-3.151-.153-.42-1.1-.309-1.1-.309l-3.164.019a.734.734 0 0 0-.408.07.871.871 0 0 0-.28.332 17.609 17.609 0 0 1-1.169 2.411c-1.409 2.337-1.972 2.461-2.2 2.316-.537-.339-.4-1.36-.4-2.085 0-2.266.352-3.21-.685-3.454a5.515 5.515 0 0 0-1.477-.144 7 7 0 0 0-2.626.262c-.36.172-.639.556-.469.578a1.428 1.428 0 0 1 .933.459 2.918 2.918 0 0 1 .313 1.4s.187 2.667-.435 3c-.427.227-1.011-.236-2.269-2.357a19.548 19.548 0 0 1-1.129-2.287.926.926 0 0 0-.262-.345 1.315 1.315 0 0 0-.486-.191l-3.007.019s-.452.012-.618.2c-.147.17-.01.523-.01.523s2.354 5.381 5.021 8.094a7.315 7.315 0 0 0 5.22 2.323z" class="cls-1" data-name="Path 460" transform="translate(-1222 298)"/>
</svg>
